<svg xmlns="http://www.w3.org/2000/svg" viewBox="0 0 215.34 40.28"><defs><style>.cls-1{fill:#fff;}</style></defs><title>资源 18</title><g id="图层_2" data-name="图层 2"><g id="图层_1-2" data-name="图层 1"><path class="cls-1" d="M55.65,30.26q-1.44.13-2.66.13a12.5,12.5,0,0,1-5.45-.9,4.54,4.54,0,0,1-2.34-3,25.49,25.49,0,0,1-.58-6.33,25.36,25.36,0,0,1,.58-6.29,4.6,4.6,0,0,1,2.34-3A12.33,12.33,0,0,1,53,9.94a25.67,25.67,0,0,1,2.64.15,17.29,17.29,0,0,1,2.32.38V13.8A36.81,36.81,0,0,0,54,13.51a11.55,11.55,0,0,0-3.66.39,2.14,2.14,0,0,0-1.31,1.67,24.09,24.09,0,0,0-.29,4.59,24.1,24.1,0,0,0,.29,4.59,2.15,2.15,0,0,0,1.31,1.67,11.57,11.57,0,0,0,3.66.39,25.81,25.81,0,0,0,4-.29v3.4A22.29,22.29,0,0,1,55.65,30.26Z"/><path class="cls-1" d="M62.45,29.74a3.15,3.15,0,0,1-1.8-2.16,21.35,21.35,0,0,1-.39-4.85,21.15,21.15,0,0,1,.39-4.84,3.11,3.11,0,0,1,1.79-2.14,12,12,0,0,1,4.62-.64,12,12,0,0,1,4.62.64,3.11,3.11,0,0,1,1.79,2.14,21.12,21.12,0,0,1,.39,4.84,21.32,21.32,0,0,1-.39,4.85,3.15,3.15,0,0,1-1.8,2.16,11.76,11.76,0,0,1-4.61.65A11.76,11.76,0,0,1,62.45,29.74Zm6.68-2.83a1.39,1.39,0,0,0,.7-1.1A23.36,23.36,0,0,0,70,22.72a23,23,0,0,0-.13-3.07,1.34,1.34,0,0,0-.7-1.08,5.32,5.32,0,0,0-2.08-.28,5.32,5.32,0,0,0-2.08.28,1.34,1.34,0,0,0-.7,1.08,23,23,0,0,0-.13,3.07,23.36,23.36,0,0,0,.13,3.08,1.39,1.39,0,0,0,.7,1.1,5.08,5.08,0,0,0,2.08.29A5.08,5.08,0,0,0,69.13,26.91Z"/><path class="cls-1" d="M79.64,30.16,74.87,15.34h4L82.3,26.48,85.6,15.34h3.92L84.78,30.16Z"/><path class="cls-1" d="M103.64,23.91H94.4a7.24,7.24,0,0,0,.23,2.21,1.4,1.4,0,0,0,1,.86,12.79,12.79,0,0,0,2.88.22q1.71,0,4.5-.23v3a19.89,19.89,0,0,1-2.44.33q-1.51.13-3,.13a11.54,11.54,0,0,1-4.74-.73A3.48,3.48,0,0,1,91,27.4a18.2,18.2,0,0,1-.44-4.62A17.36,17.36,0,0,1,91,18.23a3.76,3.76,0,0,1,1.89-2.34,9.69,9.69,0,0,1,4.46-.78,9,9,0,0,1,4.3.77,3.36,3.36,0,0,1,1.67,2.27,23.28,23.28,0,0,1,.33,4.63Zm-8.25-5.48a1.32,1.32,0,0,0-.77.92,9.51,9.51,0,0,0-.22,2.18H100a7.6,7.6,0,0,0-.23-2.21,1.38,1.38,0,0,0-.78-.92,4.88,4.88,0,0,0-1.68-.22A5.23,5.23,0,0,0,95.39,18.44Z"/><path class="cls-1" d="M115.73,22.32a14,14,0,0,0-.16-2.59,1.23,1.23,0,0,0-.65-.94,4.82,4.82,0,0,0-1.74-.22,3.53,3.53,0,0,0-1.85.38,1.82,1.82,0,0,0-.78,1.19,11.05,11.05,0,0,0-.19,2.35v7.67h-3.86V15.34h3.78l0,1.83h0c.37-.72,2-2.06,4.71-2.06a5.62,5.62,0,0,1,3,.64,3.07,3.07,0,0,1,1.35,1.86,12.91,12.91,0,0,1,.33,3.28v9.27h-3.86Z"/><path class="cls-1" d="M123.3,29.38A4.44,4.44,0,0,1,122.21,26a7.37,7.37,0,0,1,.41-2.73A3.29,3.29,0,0,1,124,21.51a7.12,7.12,0,0,1,2.83-.45q1.51,0,4.53.12V21a4.28,4.28,0,0,0-.28-1.83,1.37,1.37,0,0,0-1-.67,16,16,0,0,0-2.62-.15q-.9,0-2.24.09t-2.12.17v-3a33.22,33.22,0,0,1,5.64-.47,10.91,10.91,0,0,1,4.24.62,3.19,3.19,0,0,1,1.83,1.86,11.1,11.1,0,0,1,.44,3.53v9h-3.63l-.12-1.8h0c-1.19,1.92-3.84,2-4.88,2A4.73,4.73,0,0,1,123.3,29.38ZM130,27.13a1.94,1.94,0,0,0,.94-.71,4.23,4.23,0,0,0,.44-2.18v-.46H127.9a1.76,1.76,0,0,0-2,1.83c0,.52.19,1.42.89,1.61A7.78,7.78,0,0,0,130,27.13Z"/><path class="cls-1" d="M147.86,22.32a14,14,0,0,0-.16-2.59,1.23,1.23,0,0,0-.65-.94,4.82,4.82,0,0,0-1.74-.22,3.53,3.53,0,0,0-1.85.38,1.82,1.82,0,0,0-.78,1.19,11.05,11.05,0,0,0-.19,2.35v7.67h-3.86V15.34h3.79l0,1.83h0c.37-.72,1.85-2.06,4.71-2.06a5.62,5.62,0,0,1,3,.64,3.07,3.07,0,0,1,1.35,1.86,12.91,12.91,0,0,1,.33,3.28v9.27h-3.86Z"/><path class="cls-1" d="M167.82,29.89V26.61q3.39.33,5.79.33a14.88,14.88,0,0,0,2.19-.12,2.54,2.54,0,0,0,1.17-.43,1.19,1.19,0,0,0,.46-.66,4.82,4.82,0,0,0,.1-1.1,4.5,4.5,0,0,0-.11-1.17.89.89,0,0,0-.44-.55,3.22,3.22,0,0,0-1.1-.26l-4.05-.47a6.35,6.35,0,0,1-2.81-1,3.56,3.56,0,0,1-1.36-1.82,8.85,8.85,0,0,1-.37-2.77,6.38,6.38,0,0,1,.88-3.68,4.06,4.06,0,0,1,2.37-1.64,15.68,15.68,0,0,1,3.83-.39,29.79,29.79,0,0,1,6.17.55v3.2a40.5,40.5,0,0,0-5.38-.36,8.36,8.36,0,0,0-3.28.41,1,1,0,0,0-.55.58,3.91,3.91,0,0,0-.11,1.07,4.47,4.47,0,0,0,.11,1.19.78.78,0,0,0,.48.51,5.43,5.43,0,0,0,1.25.26l4.35.52a7,7,0,0,1,2.09.51,2.74,2.74,0,0,1,1.3,1.23,7.8,7.8,0,0,1,.66,3.67,7.55,7.55,0,0,1-.83,3.94,3.8,3.8,0,0,1-2.22,1.72,13.64,13.64,0,0,1-3.65.4A47,47,0,0,1,167.82,29.89Z"/><path class="cls-1" d="M200.73,33.14v.14h-4.3l-2.07-3q-1,.08-2.34.08a13.36,13.36,0,0,1-5.54-.83,3.81,3.81,0,0,1-2.08-2.7,31.13,31.13,0,0,1-.43-6.17,31.12,31.12,0,0,1,.43-6.17,3.81,3.81,0,0,1,2.08-2.7,19,19,0,0,1,11.09,0,3.8,3.8,0,0,1,2.09,2.7,31.16,31.16,0,0,1,.43,6.17q0,2.78-.12,4.33a8.65,8.65,0,0,1-.58,2.63,3.53,3.53,0,0,1-1.45,1.7Zm-8.63-6.2-1.93-2.84h4.05l1.41,2a4,4,0,0,0,.41-1.7q.08-1.14.08-3.74a31.77,31.77,0,0,0-.21-4.53,1.76,1.76,0,0,0-1-1.47,9.28,9.28,0,0,0-2.94-.3,9.13,9.13,0,0,0-2.92.3,1.8,1.8,0,0,0-1,1.49,29.76,29.76,0,0,0-.22,4.52,29.75,29.75,0,0,0,.22,4.52,1.8,1.8,0,0,0,1,1.49,9.12,9.12,0,0,0,2.92.3Z"/><path class="cls-1" d="M203.4,30.11v-19h3.91V26.56h8v3.56Z"/><path class="cls-1" d="M161.63,26.86a1.4,1.4,0,0,1-1-.86,6.17,6.17,0,0,1-.22-1.77V18.42h3.37v-3.2h-3.37v-4.3h-3.86v4.3h-2.85v3.2h2.85V23h0a18.45,18.45,0,0,0,.27,4.33,3.71,3.71,0,0,0,2.1,2.25,12.6,12.6,0,0,0,4.93.73v-3.2A10.16,10.16,0,0,1,161.63,26.86Z"/><path class="cls-1" d="M17.44,0,0,10.08V30.15H0L17.4,40.25h0l.06,0a60.48,60.48,0,0,1-.84-10.59c0-.33,0-.65,0-1a8.94,8.94,0,1,1,7.85-3.31l.71.45A38.42,38.42,0,0,0,34.9,30.2V10.06ZM8.73,14.19a7.94,7.94,0,0,1,.51-7.32v0h0s.06-.09.08,0a14.83,14.83,0,0,0,1.11,3.58,7.76,7.76,0,0,0,.79,1.06A10.49,10.49,0,0,0,8.73,14.19Zm17.38-.27a10.49,10.49,0,0,0-2.52-2.55,8,8,0,0,0,.75-1,7.91,7.91,0,0,0,1.1-3.44V6.75c0-.12,0-.07.08,0h0v0A7.94,7.94,0,0,1,26.11,13.92Z"/></g></g></svg>